<?xml version="1.0" standalone="no"?>
<!DOCTYPE svg PUBLIC "-//W3C//DTD SVG 20010904//EN"
 "http://www.w3.org/TR/2001/REC-SVG-20010904/DTD/svg10.dtd">
<svg version="1.0" xmlns="http://www.w3.org/2000/svg"
 width="553.000000pt" height="528.000000pt" viewBox="0 0 553.000000 528.000000"
 preserveAspectRatio="xMidYMid meet">

<g transform="translate(0.000000,528.000000) scale(0.100000,-0.100000)"
fill="#000000" stroke="none">
<path d="M2599 5242 c-110 -96 -212 -146 -474 -232 -258 -85 -320 -123 -404
-249 -277 -411 -366 -807 -286 -1266 28 -161 45 -231 70 -278 13 -26 30 -74
36 -105 l12 -58 82 -43 81 -43 79 20 c44 12 122 35 173 51 69 21 92 25 88 15
-8 -20 1 -18 105 27 52 23 132 51 178 64 77 21 88 21 153 9 79 -15 281 -82
377 -125 153 -69 285 -95 346 -67 17 7 36 34 56 76 17 35 29 65 27 67 -1 1
-52 12 -113 25 -60 12 -164 34 -230 50 -66 16 -136 32 -155 36 -61 12 -6 22
166 29 150 6 253 3 748 -28 l189 -12 -104 -62 c-127 -75 -197 -110 -268 -134
-73 -26 -78 -25 -92 19 -9 26 -14 31 -17 19 -5 -27 42 -117 81 -155 27 -27 43
-34 78 -35 52 -2 108 29 274 153 206 155 250 162 379 62 41 -32 55 -39 47 -23
-7 12 -10 25 -7 30 5 8 -57 64 -98 88 -20 12 -20 12 4 13 22 0 147 -21 208
-35 12 -3 22 -12 22 -20 0 -8 4 -15 10 -15 6 0 6 -9 0 -26 -6 -14 -10 -33 -9
-42 1 -9 6 -1 13 19 6 20 16 42 23 50 18 22 36 106 31 147 -3 20 -2 57 1 82 6
44 7 45 39 42 29 -3 34 0 47 32 8 19 15 49 15 66 0 27 2 29 19 21 10 -6 44
-14 75 -17 70 -8 71 -1 17 99 -44 81 -50 100 -81 242 -83 378 -116 489 -193
640 -72 142 -153 232 -254 282 l-62 31 38 26 c42 30 77 85 68 109 -4 12 -29
16 -119 19 -126 5 -226 26 -528 113 -226 65 -295 82 -385 95 -143 20 -321 8
-431 -30 l-56 -20 7 23 c3 12 9 55 12 95 l6 72 -35 0 c-26 0 -46 -10 -79 -38z
m65 6 c-109 -124 -300 -227 -569 -306 -55 -16 -116 -32 -135 -35 -35 -6 -35
-6 -9 8 14 8 106 41 205 73 256 85 397 156 483 246 38 39 56 49 25 14z m591
-156 c50 -12 171 -46 271 -76 279 -84 442 -119 556 -120 106 -1 115 -11 21
-26 -98 -16 -316 29 -530 110 -59 22 -112 40 -119 40 -7 0 -65 15 -131 34
-225 65 -353 69 -567 15 -43 -11 -80 -18 -83 -15 -13 13 14 25 89 40 46 9 92
18 103 20 53 12 304 -2 390 -22z m1048 -499 c24 -32 58 -85 74 -118 34 -66 86
-206 80 -212 -2 -2 -14 25 -27 59 -32 88 -81 183 -134 261 -25 37 -44 67 -42
67 3 0 25 -26 49 -57z m191 -437 c9 -30 34 -140 56 -243 52 -241 63 -278 99
-335 29 -46 30 -57 4 -40 -17 11 -59 109 -78 184 -9 34 -34 148 -55 253 -21
104 -42 200 -45 213 -4 12 -5 22 -2 22 3 0 13 -25 21 -54z m-1632 -515 c18
-10 49 -28 68 -39 54 -32 160 -69 333 -117 189 -53 259 -62 325 -45 63 17 144
58 160 81 33 47 44 -10 16 -80 -43 -109 -207 -148 -376 -90 -151 52 -417 192
-544 287 -36 26 -26 28 18 3z"/>
<path d="M1647 4770 c-93 -59 -276 -244 -353 -356 -68 -98 -131 -229 -156
-323 -27 -104 -27 -278 0 -491 46 -365 57 -483 44 -488 -16 -5 -15 -45 4 -113
l16 -56 -72 -72 c-87 -88 -119 -151 -127 -254 -11 -140 49 -462 115 -624 22
-53 48 -92 103 -153 41 -45 88 -88 104 -97 17 -9 62 -20 100 -24 39 -4 108
-12 154 -19 103 -14 166 -2 242 43 37 22 62 46 79 77 23 41 25 55 25 165 -1
66 -7 145 -14 175 -7 30 -28 118 -47 195 -24 98 -38 190 -47 305 -19 229 -39
262 -215 351 -40 21 -64 40 -67 53 -3 12 -9 43 -15 69 -6 27 -17 55 -25 63
-24 25 -47 121 -85 359 -40 246 -20 506 54 730 55 165 155 364 244 488 18 26
30 47 25 47 -4 0 -43 -23 -86 -50z m-157 -163 c0 -2 -12 -14 -27 -28 l-28 -24
24 28 c23 25 31 32 31 24z m-155 -1733 c35 -23 62 -71 96 -172 49 -143 139
-547 139 -623 0 -39 -19 -88 -58 -147 -46 -71 -92 -100 -169 -108 l-61 -7 -46
43 c-56 52 -97 132 -137 270 -46 163 -63 271 -64 415 0 121 2 134 27 185 29
59 84 119 133 144 39 21 109 20 140 0z"/>
<path d="M1224 2702 c-50 -53 -97 -108 -104 -121 -15 -30 -10 -82 24 -221 20
-81 32 -110 52 -127 32 -29 33 -29 71 6 18 16 34 26 37 23 16 -16 1 -45 -44
-84 -49 -43 -49 -44 -38 -80 8 -29 7 -45 -6 -84 -10 -29 -13 -51 -7 -57 6 -6
47 23 105 73 l96 83 0 51 c0 53 -23 193 -43 260 -6 21 -21 45 -34 54 -23 14
-26 13 -56 -17 -18 -17 -36 -31 -40 -31 -18 0 -3 28 37 70 l45 45 -11 53 c-11
52 -9 62 30 182 3 9 -2 7 -12 -5 -17 -20 -17 -20 -11 3 4 12 5 22 3 22 -2 0
-44 -44 -94 -98z m-20 -93 c-50 -50 -59 -66 -65 -106 l-6 -48 -2 53 c-1 53 0
55 61 119 35 35 64 59 66 53 3 -7 -22 -39 -54 -71z m125 -156 c-2 -12 -99 -97
-104 -91 -6 5 85 98 97 98 4 0 8 -3 7 -7z m-171 -68 l1 -20 -9 20 c-5 11 -8
31 -8 45 l0 25 8 -25 c4 -14 8 -34 8 -45z m35 48 c-7 -2 -19 -2 -25 0 -7 3 -2
5 12 5 14 0 19 -2 13 -5z m-26 -95 c-3 -8 -6 -5 -6 6 -1 11 2 17 5 13 3 -3 4
-12 1 -19z m161 -77 l1 -80 -49 -41 c-28 -23 -50 -37 -50 -31 0 5 21 27 46 48
46 38 46 38 41 90 -5 44 0 93 8 93 1 0 3 -36 3 -79z m-151 27 c-3 -7 -5 -2 -5
12 0 14 2 19 5 13 2 -7 2 -19 0 -25z m70 -245 c-3 -10 -5 -4 -5 12 0 17 2 24
5 18 2 -7 2 -21 0 -30z"/>
<path d="M1069 3863 c-30 -148 -34 -418 -7 -493 9 -25 19 -62 23 -83 l6 -39
25 17 c45 29 36 10 -11 -24 -25 -18 -45 -35 -45 -38 0 -22 78 -264 88 -275 4
-4 14 -3 22 2 13 8 12 17 -3 74 -21 78 -21 95 -3 115 10 12 12 29 6 71 -4 30
-10 73 -14 95 -3 22 -10 85 -16 140 -36 326 -47 456 -43 503 3 28 3 52 1 52
-3 0 -16 -53 -29 -117z"/>
<path d="M4556 3372 c-5 -8 -19 -12 -32 -9 -27 5 -26 8 -28 -118 -1 -53 -7
-83 -27 -125 -17 -35 -34 -104 -49 -190 -12 -74 -33 -193 -45 -265 -12 -71
-30 -195 -39 -275 -32 -276 -50 -351 -122 -506 l-43 -93 42 16 c182 71 296
244 357 538 4 22 18 90 31 150 16 77 23 147 23 230 1 111 -1 125 -28 185 -24
56 -27 71 -20 115 13 86 -3 373 -20 347z"/>
<path d="M4406 2998 c-3 -13 -5 -32 -5 -43 1 -11 5 -2 10 19 10 42 6 62 -5 24z"/>
<path d="M2375 2951 c-108 -30 -272 -110 -344 -168 -23 -19 -23 -20 -6 -54 44
-86 202 -255 221 -237 2 3 -9 43 -25 89 -47 140 -47 137 -4 156 21 8 51 19 66
24 25 7 28 6 22 -8 -3 -10 -9 -36 -12 -59 l-6 -43 49 -3 c41 -2 49 -6 52 -24
3 -23 -19 -34 -70 -34 -33 0 -32 3 -13 -49 21 -60 51 -98 93 -121 44 -23 29
-26 -23 -4 -52 21 -65 13 -24 -17 30 -21 45 -24 124 -24 108 0 244 28 303 62
24 14 41 27 39 30 -3 2 -16 -2 -29 -10 -12 -9 -41 -19 -63 -23 l-40 -7 27 22
c45 36 78 116 78 187 0 35 -5 75 -10 90 -6 15 -8 29 -6 32 9 8 96 -28 169 -69
38 -22 72 -39 77 -39 18 0 17 67 -2 112 -54 127 -203 196 -443 204 -107 3
-142 1 -200 -15z m229 -244 c17 -22 21 -43 21 -97 0 -59 -3 -72 -24 -94 -34
-36 -92 -36 -120 0 -40 51 -36 140 10 198 29 37 83 33 113 -7z"/>
<path d="M4391 2914 c0 -11 3 -14 6 -6 3 7 2 16 -1 19 -3 4 -6 -2 -5 -13z"/>
<path d="M4381 2864 c0 -11 3 -14 6 -6 3 7 2 16 -1 19 -3 4 -6 -2 -5 -13z"/>
<path d="M3729 2761 c-88 -28 -237 -131 -189 -131 5 0 7 -6 4 -14 -3 -9 3 -17
15 -21 25 -8 26 -17 6 -55 -10 -19 -11 -31 -5 -35 6 -4 58 12 116 35 95 37
115 41 190 41 130 0 281 -54 337 -120 39 -46 50 -40 45 23 -4 51 -3 54 14 45
28 -15 33 13 9 58 -43 80 -95 121 -210 163 -70 26 -95 30 -179 29 -64 0 -116
-6 -153 -18z"/>
<path d="M4341 2634 c0 -11 3 -14 6 -6 3 7 2 16 -1 19 -3 4 -6 -2 -5 -13z"/>
<path d="M4332 2590 c0 -14 2 -19 5 -12 2 6 2 18 0 25 -3 6 -5 1 -5 -13z"/>
<path d="M4326 2547 c3 -10 9 -15 12 -12 3 3 0 11 -7 18 -10 9 -11 8 -5 -6z"/>
<path d="M4321 2504 c0 -11 3 -14 6 -6 3 7 2 16 -1 19 -3 4 -6 -2 -5 -13z"/>
<path d="M4310 2413 c-3 -23 -2 -39 3 -34 5 5 7 24 5 42 -3 33 -4 33 -8 -8z"/>
<path d="M4286 2235 c-17 -120 -75 -314 -86 -294 -4 6 -7 -3 -6 -19 1 -17 4
-28 8 -26 13 9 67 161 81 234 17 80 32 220 25 220 -2 0 -12 -52 -22 -115z"/>
<path d="M4271 2264 c0 -11 3 -14 6 -6 3 7 2 16 -1 19 -3 4 -6 -2 -5 -13z"/>
<path d="M4176 1863 c-6 -14 -5 -15 5 -6 7 7 10 15 7 18 -3 3 -9 -2 -12 -12z"/>
<path d="M4154 1843 c7 -13 -3 -45 -13 -39 -4 3 -7 -4 -7 -15 0 -26 3 -24 22
12 12 25 13 34 3 43 -9 8 -10 8 -5 -1z"/>
<path d="M1937 1789 c39 -69 149 -223 161 -227 7 -2 -18 40 -56 95 -38 54 -77
113 -88 131 -10 17 -22 32 -27 32 -4 0 0 -14 10 -31z"/>
<path d="M1886 1764 l-18 -26 42 -43 c51 -52 130 -110 130 -96 0 5 -4 12 -8
15 -5 3 -32 44 -61 91 -29 47 -56 85 -59 85 -4 0 -15 -12 -26 -26z"/>
<path d="M2775 1720 c189 -110 310 -154 458 -166 75 -6 90 -4 174 25 51 16
125 47 165 68 l73 38 -250 7 c-344 9 -559 32 -693 74 -9 3 24 -18 73 -46z
m265 -46 c36 -3 89 -9 119 -14 29 -4 114 -7 187 -6 95 1 128 -1 112 -8 -13 -5
-108 -10 -213 -10 -196 -1 -269 10 -320 48 -19 14 -17 15 15 6 19 -6 64 -13
100 -16z m225 -58 c127 1 129 0 85 -14 -61 -19 -162 -18 -232 2 -65 20 -77 31
-20 19 20 -4 96 -7 167 -7z"/>
<path d="M4093 1725 c0 -8 4 -12 9 -9 5 3 6 10 3 15 -9 13 -12 11 -12 -6z"/>
<path d="M4035 1661 c-3 -5 -2 -12 3 -15 5 -3 9 1 9 9 0 17 -3 19 -12 6z"/>
<path d="M4006 1622 c-3 -5 1 -9 9 -9 8 0 12 4 9 9 -3 4 -7 8 -9 8 -2 0 -6 -4
-9 -8z"/>
<path d="M3949 1553 c-12 -16 -12 -17 2 -6 9 7 20 9 24 5 5 -4 5 -1 1 6 -9 16
-11 15 -27 -5z"/>
<path d="M3899 1498 c-5 -18 -6 -38 -1 -34 7 8 12 36 6 36 -2 0 -4 -1 -5 -2z"/>
<path d="M3842 1419 c2 -7 -2 -13 -9 -14 -6 0 -14 -3 -18 -7 -4 -3 0 -5 9 -4
24 3 40 22 27 31 -7 3 -10 1 -9 -6z"/>
<path d="M2935 1120 c27 -12 43 -12 25 0 -8 5 -22 9 -30 9 -10 0 -8 -3 5 -9z"/>
<path d="M3470 1105 c-14 -8 -20 -14 -15 -14 6 0 21 6 35 14 14 8 21 14 15 14
-5 0 -21 -6 -35 -14z"/>
<path d="M3028 1093 c7 -3 16 -2 19 1 4 3 -2 6 -13 5 -11 0 -14 -3 -6 -6z"/>
<path d="M3405 1080 c-13 -6 -15 -9 -5 -9 8 0 22 4 30 9 18 12 2 12 -25 0z"/>
<path d="M3168 1063 c12 -2 30 -2 40 0 9 3 -1 5 -23 4 -22 0 -30 -2 -17 -4z"/>
<path d="M2071 1008 c-33 -29 -59 -60 -60 -68 0 -19 234 -218 345 -292 145
-97 277 -136 494 -144 85 -4 176 -2 221 5 95 13 235 66 254 95 13 20 65 208
78 282 5 28 2 33 -34 53 -61 35 -98 43 -121 27 -12 -9 -16 -16 -9 -21 17 -10
12 -96 -8 -140 -61 -136 -239 -177 -541 -125 -97 16 -131 27 -217 71 -57 28
-103 55 -103 59 0 5 -8 11 -18 14 -10 4 -52 39 -93 80 -63 61 -76 79 -77 106
-1 32 -14 50 -40 50 -7 0 -39 -24 -71 -52z"/>
<path d="M3273 1053 c15 -2 37 -2 50 0 12 2 0 4 -28 4 -27 0 -38 -2 -22 -4z"/>
<path d="M3173 945 c0 -22 2 -30 4 -17 2 12 2 30 0 40 -3 9 -5 -1 -4 -23z"/>
<path d="M1760 809 c-118 -61 -242 -127 -275 -146 -119 -71 -274 -176 -280
-190 -3 -8 19 -49 48 -91 29 -43 66 -98 81 -125 l27 -47 82 63 c118 91 180
127 482 287 152 80 285 160 285 170 0 14 -203 190 -220 190 -8 0 -112 -50
-230 -111z"/>
<path d="M3414 873 c-3 -16 -9 -41 -13 -57 l-7 -30 231 -77 c327 -109 431
-161 585 -286 l70 -57 0 -145 c0 -79 2 -142 5 -139 3 3 5 98 6 212 1 237 -8
270 -81 321 -22 15 -37 32 -33 38 4 6 0 8 -10 4 -9 -3 -17 -2 -19 2 -4 10
-269 112 -363 140 -153 44 -355 101 -359 101 -3 0 -8 -12 -12 -27z"/>
<path d="M4305 429 c5 -24 7 -131 7 -236 l-1 -193 113 0 114 0 -10 42 c-16 72
-65 178 -139 301 -39 64 -76 120 -81 123 -7 4 -8 -9 -3 -37z"/>
<path d="M1142 393 c-22 -32 -82 -121 -133 -198 -50 -77 -100 -152 -111 -167
l-19 -28 256 0 c295 0 273 -12 230 117 -14 42 -23 78 -20 81 5 6 -10 33 -94
165 -30 48 -58 87 -61 87 -4 0 -25 -26 -48 -57z"/>
</g>
</svg>
